<?xml version="1.0" encoding="UTF-8" standalone="no"?><!DOCTYPE svg PUBLIC "-//W3C//DTD SVG 1.1//EN" "http://www.w3.org/Graphics/SVG/1.1/DTD/svg11.dtd"><svg width="100%" height="100%" viewBox="0 0 1636 546" version="1.1" xmlns="http://www.w3.org/2000/svg" xmlns:xlink="http://www.w3.org/1999/xlink" xml:space="preserve" style="fill-rule:evenodd;clip-rule:evenodd;stroke-linejoin:round;stroke-miterlimit:1.41421;"><path d="M717.419,310.986c38.304,38.304 100.626,38.304 138.93,0c38.304,-38.304 38.304,-100.626 0,-138.93c-38.304,-38.304 -100.626,-38.304 -138.93,0c-38.304,38.304 -38.304,100.626 0,138.93m-20.096,20.096c-49.386,-49.384 -49.386,-129.738 0,-179.122c49.384,-49.386 129.738,-49.386 179.122,0c49.386,49.384 49.386,129.738 0,179.122c-49.384,49.386 -129.738,49.386 -179.122,0" style="fill:#262262;fill-rule:nonzero;"/><path d="M910.155,375.552l10.76,-10.76l-43.556,-43.556l-10.76,10.76l43.556,43.556Z" style="fill:#262262;fill-rule:nonzero;"/><path d="M1017.72,472.361c8.53,-8.53 8.53,-22.358 0,-30.888l-85.792,-85.792c-8.53,-8.528 -22.358,-8.528 -30.888,0c-8.528,8.53 -8.528,22.358 0,30.888l85.792,85.792c8.53,8.53 22.358,8.53 30.888,0" style="fill:#262262;fill-rule:nonzero;"/><path d="M37.092,386.82l-26.496,0l0,-272.01l26.496,0l0,272.01Zm4.122,-379.756c4.71,4.71 7.064,10.404 7.064,17.074c0,6.68 -2.354,12.364 -7.064,17.074c-4.71,4.71 -10.406,7.066 -17.074,7.066c-6.68,0 -12.366,-2.356 -17.076,-7.066c-4.71,-4.71 -7.064,-10.394 -7.064,-17.074c0,-6.67 2.354,-12.364 7.064,-17.074c4.71,-4.71 10.396,-7.064 17.076,-7.064c6.668,0 12.364,2.354 17.074,7.064" style="fill:#1c75bc;fill-rule:nonzero;"/><path d="M164.851,157.2l1.176,0c7.848,-15.308 18.842,-27.176 32.972,-35.622c14.13,-8.434 30.028,-12.658 47.69,-12.658c33.358,0 56.614,9.522 69.77,28.556c13.146,19.044 19.724,47.396 19.724,85.076l0,164.268l-26.496,0l0,-164.268c0,-14.13 -0.69,-26.2 -2.06,-36.208c-1.38,-10.01 -4.324,-19.034 -8.832,-27.084c-4.516,-8.04 -11.094,-14.324 -19.724,-18.84c-8.638,-4.508 -20.22,-6.77 -34.736,-6.77c-16.1,0 -29.54,3.44 -40.332,10.302c-10.8,6.872 -18.942,15.998 -24.434,27.378c-5.5,11.388 -9.328,23.846 -11.48,37.386c-2.162,13.542 -3.238,28.17 -3.238,43.864l0,134.24l-26.496,0l0,-272.012l26.496,0l0,42.392Z" style="fill:#1c75bc;fill-rule:nonzero;"/><path d="M541.068,164.265c-4.324,-9.42 -10.698,-16.872 -19.134,-22.374c-8.446,-5.492 -17.958,-8.242 -28.556,-8.242c-11.774,0 -22.474,4.224 -32.088,12.658c-9.622,8.446 -14.424,18.354 -14.424,29.734c0,12.952 4.608,22.768 13.836,29.438c9.218,6.678 23.256,13.542 42.096,20.608c12.162,4.322 22.272,8.344 30.322,12.068c8.04,3.736 15.602,8.538 22.668,14.426c7.066,5.888 12.75,13.348 17.074,22.374c4.314,9.032 6.476,20.018 6.476,32.97c0,24.728 -8.444,45.042 -25.316,60.938c-16.882,15.896 -37.682,23.844 -62.41,23.844c-22.768,0 -42.686,-6.476 -59.76,-19.428c-17.074,-12.954 -28.362,-30.414 -33.854,-52.4l25.906,-8.244c5.492,16.882 13.836,30.322 25.022,40.332c11.186,10.006 25.41,15.012 42.686,15.012c17.268,0 31.794,-5.888 43.568,-17.664c11.776,-11.774 17.664,-26.29 17.664,-43.568c0,-14.912 -4.518,-26.1 -13.542,-33.56c-9.034,-7.452 -22.18,-14.13 -39.446,-20.018c-12.954,-4.71 -23.46,-8.924 -31.5,-12.658c-8.05,-3.726 -15.806,-8.334 -23.256,-13.836c-7.462,-5.492 -13.45,-12.264 -17.958,-20.312c-4.518,-8.042 -6.772,-17.562 -6.772,-28.556c0,-20.018 7.26,-36.504 21.786,-49.456c14.516,-12.954 31.986,-19.43 52.4,-19.43c13.734,0 27.276,4.122 40.624,12.364c13.34,8.242 22.964,18.648 28.85,31.204l-22.962,11.776Z" style="fill:#1c75bc;fill-rule:nonzero;"/><path d="M1186.95,228.44c-1.574,-12.556 -5.208,-24.526 -10.892,-35.914c-5.696,-11.38 -13.156,-21.582 -22.374,-30.616c-9.228,-9.024 -19.928,-15.99 -32.088,-20.902c-12.172,-4.902 -24.932,-7.36 -38.272,-7.36c-13.744,0 -26.694,2.458 -38.856,7.36c-12.172,4.912 -23.164,11.776 -32.972,20.606c-9.816,8.832 -17.664,19.044 -23.55,30.618c-5.888,11.582 -9.422,23.652 -10.598,36.208l209.602,0Zm-209.602,24.728c0,34.546 10.304,62.318 30.91,83.312c20.606,21.002 46.604,31.5 78.012,31.5c20.8,0 39.448,-5.594 55.932,-16.782c16.486,-11.186 29.826,-26.2 40.038,-45.042l22.372,12.954c-12.172,23.55 -28.85,41.71 -50.044,54.46c-21.196,12.76 -45.144,19.136 -71.83,19.136c-19.632,0 -37.59,-3.734 -53.874,-11.186c-16.29,-7.452 -30.32,-17.756 -42.096,-30.91c-11.776,-13.146 -20.708,-28.354 -26.788,-45.628c-6.09,-17.268 -9.128,-35.52 -9.128,-54.756c0,-19.228 3.14,-37.286 9.422,-54.168c6.274,-16.872 15.306,-31.886 27.082,-45.04c11.776,-13.146 25.804,-23.45 42.098,-30.912c16.284,-7.45 34.046,-11.186 53.284,-11.186c20.016,0 38.168,3.736 54.46,11.186c16.284,7.462 30.12,17.866 41.508,31.206c11.38,13.348 20.018,28.756 25.906,46.218c5.886,17.47 8.832,36.016 8.832,55.638l-236.096,0Z" style="fill:#1c75bc;fill-rule:nonzero;"/><path d="M1486.04,177.807c-27.084,-29.438 -59.08,-44.158 -95.97,-44.158c-15.704,0 -30.422,3.146 -44.156,9.42c-13.746,6.284 -25.714,14.822 -35.916,25.612c-10.212,10.8 -18.162,23.256 -23.844,37.386c-5.696,14.132 -8.538,28.85 -8.538,44.158c0,15.308 2.74,30.028 8.242,44.158c5.492,14.13 13.34,26.788 23.552,37.976c10.2,11.186 22.17,19.926 35.914,26.198c13.734,6.284 28.454,9.422 44.158,9.422c19.226,0 37.58,-4.314 55.048,-12.952c17.462,-8.63 32.474,-20.608 45.042,-35.916l0,35.916c-13.744,12.17 -29.144,21.49 -46.218,27.966c-17.074,6.478 -34.646,9.714 -52.694,9.714c-20.018,0 -38.566,-3.634 -55.64,-10.892c-17.074,-7.258 -31.894,-17.368 -44.452,-30.322c-12.568,-12.952 -22.28,-28.16 -29.144,-45.628c-6.872,-17.462 -10.304,-36.008 -10.304,-55.64c0,-19.226 3.534,-37.478 10.598,-54.754c7.066,-17.268 16.974,-32.382 29.734,-45.336c12.75,-12.952 27.672,-23.054 44.746,-30.322c17.074,-7.258 35.418,-10.892 55.05,-10.892c36.89,0 68.49,11.186 94.792,33.56l0,35.326Z" style="fill:#1c75bc;fill-rule:nonzero;"/><path d="M1587.89,386.819l-26.494,0l0,-247.282l-30.028,0l0,-24.728l30.028,0l0,-97.148l26.494,0l0,97.148l47.69,0l0,24.728l-47.69,0l0,247.282Z" style="fill:#1c75bc;fill-rule:nonzero;"/><rect x="647.634" y="114.808" width="26.496" height="430.644" style="fill:#1c75bc;fill-rule:nonzero;"/></svg>